<svg xmlns="http://www.w3.org/2000/svg" width="103" height="78" viewBox="0 0 103 78" fill="none"><path d="M59.9021 35.4054H55.8295C55.408 35.4054 55.0659 35.0658 55.0659 34.6473H49.9749C49.9749 35.0658 49.6328 35.4054 49.2113 35.4054H45.1387C44.1562 35.4054 43.3568 34.612 43.3568 33.6365L40.3022 23.0238C40.3022 22.6894 40.4399 22.3618 40.679 22.1243L51.992 11.3581C52.2873 11.0769 52.7535 11.0769 53.0488 11.3581L64.3506 22.1121C64.6009 22.3618 64.7383 22.6894 64.7383 23.0238L61.6838 33.6365C61.6838 34.612 60.8846 35.4054 59.9021 35.4054ZM56.5931 33.8893H59.9021C60.0406 33.8893 60.1566 33.774 60.1566 33.6365L60.8285 23.0238L52.5203 12.956L44.2116 23.0337L44.884 33.6365C44.884 33.774 45.0002 33.8893 45.1387 33.8893H48.4477V28.0775C48.4477 27.1022 49.2469 26.3088 50.2294 26.3088H54.8112C55.7939 26.3088 56.5931 27.1022 56.5931 28.0775V33.8893Z" fill="#FF6C3D"></path><path d="M67.7927 35.5634L64.6873 20.7803L64.6904 23.9489C64.6904 23.9489 66.7236 16.6949 67.3345 14.1226C67.9454 11.5502 67.7418 12.6827 68.1491 10.7432C68.5564 8.8038 67.7927 8.08829 64.7415 7.19587C64.7415 7.19587 45.8155 2.60394 44.8838 2.88762C43.9521 3.17131 30.2804 22.1235 30.2804 22.1235C29.7955 22.6255 29.7955 23.447 30.2804 23.9489C30.2804 23.9489 44.0337 43.125 44.8627 43.125C45.6918 43.125 64.7415 39.2822 64.7415 39.2822C67.7927 38.2276 67.7927 37.2335 67.7927 35.5634ZM64.6873 20.7803C64.8757 24.2358 64.0917 35.5634 64.0917 35.5634L45.8664 39.2822L34.1624 22.9754L45.8664 7.19587L64.0917 10.0763L64.6873 20.7803Z" fill="#FF6C3D"></path><path d="M1.44 72.244L4.752 71.704V45.496L1.44 44.992V44.2H12.744C16.296 44.2 18.936 44.956 20.664 46.468C22.392 47.98 23.256 50.164 23.256 53.02C23.256 55.876 22.392 58.06 20.664 59.572C18.936 61.084 16.296 61.84 12.744 61.84H8.712V71.704L12.024 72.244V73H1.44V72.244ZM12.24 60.976C16.68 60.976 18.9 58.564 18.9 53.74V52.3C18.9 47.5 16.68 45.1 12.24 45.1H8.712V60.976H12.24ZM29.4334 50.176C28.7614 50.176 28.1854 49.948 27.7054 49.492C27.2254 49.012 26.9854 48.436 26.9854 47.764C26.9854 47.092 27.2134 46.528 27.6694 46.072C28.1494 45.616 28.7374 45.388 29.4334 45.388C30.0814 45.388 30.6334 45.616 31.0894 46.072C31.5454 46.528 31.7734 47.092 31.7734 47.764C31.7734 48.436 31.5454 49.012 31.0894 49.492C30.6334 49.948 30.0814 50.176 29.4334 50.176ZM25.6174 73V72.28L28.1374 71.92V55.468L25.6174 55.108V54.388H31.7374V71.92L34.2574 72.28V73H25.6174ZM36.4196 73V72.136L47.5796 55.252H40.4516L37.4996 60.832H36.5996L37.0676 54.352H51.7916V55.252L40.6316 72.136H48.3356L51.5036 66.124H52.4396L51.7556 73H36.4196ZM55.0173 73V72.136L66.1773 55.252H59.0493L56.0973 60.832H55.1973L55.6653 54.352H70.3893V55.252L59.2293 72.136H66.9333L70.1013 66.124H71.0373L70.3533 73H55.0173ZM79.1229 73.36C77.5869 73.36 76.3269 72.964 75.3429 72.172C74.3589 71.356 73.8669 70.156 73.8669 68.572C73.8669 66.316 74.8149 64.72 76.7109 63.784C78.6069 62.824 80.8029 62.344 83.2989 62.344H85.7109V59.572C85.7109 58.324 85.5669 57.364 85.2789 56.692C85.0149 55.996 84.5949 55.516 84.0189 55.252C83.4429 54.964 82.6629 54.82 81.6789 54.82C80.5509 54.82 79.7109 55.048 79.1589 55.504C78.6069 55.936 78.3309 56.524 78.3309 57.268C78.3309 57.964 78.6669 58.42 79.3389 58.636C79.3389 59.236 79.1109 59.764 78.6549 60.22C78.1989 60.676 77.6589 60.904 77.0349 60.904C76.3629 60.904 75.8229 60.724 75.4149 60.364C75.0069 59.98 74.8029 59.404 74.8029 58.636C74.8029 57.244 75.4989 56.128 76.8909 55.288C78.2829 54.448 80.0229 54.028 82.1109 54.028C86.9109 54.028 89.3109 56.116 89.3109 60.292V70.588C89.3109 71.116 89.4189 71.524 89.6349 71.812C89.8749 72.076 90.2109 72.208 90.6429 72.208C91.0509 72.208 91.3749 72.076 91.6149 71.812C91.8549 71.524 91.9749 71.14 91.9749 70.66H92.7309C92.7309 71.5 92.4549 72.16 91.9029 72.64C91.3749 73.12 90.6309 73.36 89.6709 73.36C88.5669 73.36 87.6309 73.048 86.8629 72.424C86.1189 71.776 85.7349 70.78 85.7109 69.436C85.1349 70.66 84.2469 71.62 83.0469 72.316C81.8709 73.012 80.5629 73.36 79.1229 73.36ZM81.1029 71.776C81.7509 71.776 82.4109 71.584 83.0829 71.2C83.7789 70.816 84.3669 70.264 84.8469 69.544C85.3269 68.8 85.6149 67.912 85.7109 66.88V63.136H83.2989C81.3309 63.136 79.8549 63.58 78.8709 64.468C77.9109 65.332 77.4309 66.556 77.4309 68.14C77.4309 69.46 77.7429 70.396 78.3669 70.948C78.9909 71.5 79.9029 71.776 81.1029 71.776ZM93.3567 73V72.28L96.0567 71.92V45.28L93.3567 44.92V44.2H99.6567V71.92L102.177 72.28V73H93.3567Z" fill="#454545"></path></svg>